<svg width="30" height="29" viewBox="0 0 30 29" fill="none" xmlns="http://www.w3.org/2000/svg">
<path d="M9.75 2.41797H20.25C24.25 2.41797 27.5 5.55964 27.5 9.4263V19.5763C27.5 21.435 26.7362 23.2176 25.3765 24.5319C24.0169 25.8463 22.1728 26.5846 20.25 26.5846H9.75C5.75 26.5846 2.5 23.443 2.5 19.5763V9.4263C2.5 7.56758 3.26384 5.78498 4.62348 4.47066C5.98311 3.15634 7.82718 2.41797 9.75 2.41797ZM9.5 4.83464C8.30653 4.83464 7.16193 5.29294 6.31802 6.10872C5.47411 6.9245 5 8.03094 5 9.18464V19.818C5 22.2226 7.0125 24.168 9.5 24.168H20.5C21.6935 24.168 22.8381 23.7097 23.682 22.8939C24.5259 22.0781 25 20.9717 25 19.818V9.18464C25 6.78005 22.9875 4.83464 20.5 4.83464H9.5ZM21.5625 6.64714C21.9769 6.64714 22.3743 6.80627 22.6674 7.08953C22.9604 7.37278 23.125 7.75696 23.125 8.15755C23.125 8.55814 22.9604 8.94232 22.6674 9.22558C22.3743 9.50884 21.9769 9.66797 21.5625 9.66797C21.1481 9.66797 20.7507 9.50884 20.4576 9.22558C20.1646 8.94232 20 8.55814 20 8.15755C20 7.75696 20.1646 7.37278 20.4576 7.08953C20.7507 6.80627 21.1481 6.64714 21.5625 6.64714ZM15 8.45964C16.6576 8.45964 18.2473 9.09617 19.4194 10.2292C20.5915 11.3622 21.25 12.899 21.25 14.5013C21.25 16.1037 20.5915 17.6404 19.4194 18.7734C18.2473 19.9064 16.6576 20.543 15 20.543C13.3424 20.543 11.7527 19.9064 10.5806 18.7734C9.40848 17.6404 8.75 16.1037 8.75 14.5013C8.75 12.899 9.40848 11.3622 10.5806 10.2292C11.7527 9.09617 13.3424 8.45964 15 8.45964ZM15 10.8763C14.0054 10.8763 13.0516 11.2582 12.3483 11.938C11.6451 12.6179 11.25 13.5399 11.25 14.5013C11.25 15.4627 11.6451 16.3847 12.3483 17.0646C13.0516 17.7444 14.0054 18.1263 15 18.1263C15.9946 18.1263 16.9484 17.7444 17.6517 17.0646C18.3549 16.3847 18.75 15.4627 18.75 14.5013C18.75 13.5399 18.3549 12.6179 17.6517 11.938C16.9484 11.2582 15.9946 10.8763 15 10.8763Z" fill="#EFEFEF"/>
</svg>
